<svg preserveAspectRatio="none" overflow="visible" style="display: block;" width="70.0489" height="151.512" viewBox="0 0 70.0489 151.512" fill="none" xmlns="http://www.w3.org/2000/svg">
<path id="Vector 35" d="M19.0181 13.9079V3.44219C19.0181 2.34909 19.8957 1.45848 20.9887 1.44241L51.0574 1.00022C52.1465 0.984207 53.0481 1.84257 53.0856 2.93108L53.4721 14.1373C53.4972 14.8666 52.9129 15.4714 52.1832 15.4714C51.206 15.4714 50.5839 16.5159 51.0493 17.3752L56.1294 26.7539C56.3786 27.2138 56.4376 27.753 56.2939 28.2559L52.7737 40.5766C52.6116 41.1439 52.7083 41.7539 53.0379 42.2433L68.6716 65.457C68.8973 65.792 69.0163 66.1742 69.0128 66.5782C68.8466 85.9783 68.6222 125.659 69.0181 133.971C69.4181 142.371 65.8514 145.805 64.0181 146.471C49.5181 153.971 10.5181 149.471 4.51806 145.471C-0.244865 142.296 0.83424 91.9251 1.99103 66.5592C2.00892 66.1669 2.14159 65.8023 2.37325 65.4853L20.4451 40.7555C20.8069 40.2604 20.9215 39.6267 20.7562 39.0362L17.7158 28.1774C17.5881 27.7216 17.6263 27.2352 17.8235 26.8049L22.0029 17.6863C22.4775 16.6507 21.7208 15.4714 20.5816 15.4714C19.7181 15.4714 19.0181 14.7714 19.0181 13.9079Z" stroke="#9E9AD1" stroke-width="2"/>
</svg>
